<mxfile host="app.diagrams.net" modified="2021-02-03T06:42:45.273Z" agent="5.0 (Windows NT 10.0; Win64; x64) AppleWebKit/537.36 (KHTML, like Gecko) Chrome/88.0.4324.96 Safari/537.36 Edg/88.0.705.50" etag="e0xsSUeFB9suqL5KaP_Y" version="14.2.9" type="github">
  <diagram id="vi5ikbVNXeN05eVcxkcC" name="Page-1">
    <mxGraphModel dx="1422" dy="772" grid="1" gridSize="10" guides="1" tooltips="1" connect="1" arrows="1" fold="1" page="1" pageScale="1" pageWidth="827" pageHeight="1169" math="0" shadow="0">
      <root>
        <mxCell id="0" />
        <mxCell id="1" parent="0" />
        <mxCell id="OHUrIzu_nobyhd1tYw6S-12" value="" style="edgeStyle=orthogonalEdgeStyle;orthogonalLoop=1;jettySize=auto;html=1;fontFamily=Lucida Console;strokeWidth=2;fontSize=12;sketch=1;" parent="1" source="OHUrIzu_nobyhd1tYw6S-3" target="OHUrIzu_nobyhd1tYw6S-11" edge="1">
          <mxGeometry relative="1" as="geometry" />
        </mxCell>
        <mxCell id="OHUrIzu_nobyhd1tYw6S-20" style="edgeStyle=orthogonalEdgeStyle;orthogonalLoop=1;jettySize=auto;html=1;exitX=1;exitY=0.75;exitDx=0;exitDy=0;entryX=0.05;entryY=0.688;entryDx=0;entryDy=0;entryPerimeter=0;fontFamily=Lucida Console;strokeWidth=2;fontSize=12;sketch=1;" parent="1" source="OHUrIzu_nobyhd1tYw6S-3" target="OHUrIzu_nobyhd1tYw6S-15" edge="1">
          <mxGeometry relative="1" as="geometry" />
        </mxCell>
        <mxCell id="OHUrIzu_nobyhd1tYw6S-3" value="webserver" style="whiteSpace=wrap;html=1;strokeWidth=2;fillWeight=4;hachureGap=8;hachureAngle=45;fontFamily=Lucida Console;fontSize=15;sketch=1;" parent="1" vertex="1">
          <mxGeometry x="160" y="120" width="160" height="60" as="geometry" />
        </mxCell>
        <mxCell id="OHUrIzu_nobyhd1tYw6S-30" style="edgeStyle=orthogonalEdgeStyle;orthogonalLoop=1;jettySize=auto;html=1;exitX=1;exitY=0.75;exitDx=0;exitDy=0;entryX=0.5;entryY=0;entryDx=0;entryDy=0;startArrow=none;startFill=0;fontFamily=Lucida Console;strokeWidth=2;fontSize=12;sketch=1;" parent="1" source="OHUrIzu_nobyhd1tYw6S-11" target="OHUrIzu_nobyhd1tYw6S-26" edge="1">
          <mxGeometry relative="1" as="geometry" />
        </mxCell>
        <mxCell id="OHUrIzu_nobyhd1tYw6S-34" style="edgeStyle=orthogonalEdgeStyle;orthogonalLoop=1;jettySize=auto;html=1;exitX=0.25;exitY=1;exitDx=0;exitDy=0;entryX=0.292;entryY=0.038;entryDx=0;entryDy=0;entryPerimeter=0;startArrow=none;startFill=0;fontFamily=Lucida Console;strokeWidth=2;fontSize=12;sketch=1;" parent="1" source="OHUrIzu_nobyhd1tYw6S-11" target="OHUrIzu_nobyhd1tYw6S-13" edge="1">
          <mxGeometry relative="1" as="geometry" />
        </mxCell>
        <mxCell id="OHUrIzu_nobyhd1tYw6S-11" value="audio server" style="whiteSpace=wrap;html=1;fontFamily=Lucida Console;strokeWidth=2;fillWeight=4;hachureGap=8;hachureAngle=45;fontSize=15;sketch=1;" parent="1" vertex="1">
          <mxGeometry x="180" y="270" width="120" height="60" as="geometry" />
        </mxCell>
        <mxCell id="OHUrIzu_nobyhd1tYw6S-32" style="edgeStyle=orthogonalEdgeStyle;orthogonalLoop=1;jettySize=auto;html=1;exitX=1;exitY=0;exitDx=0;exitDy=0;entryX=0.808;entryY=1;entryDx=0;entryDy=0;entryPerimeter=0;startArrow=none;startFill=0;fontFamily=Lucida Console;strokeWidth=2;fontSize=12;sketch=1;" parent="1" source="OHUrIzu_nobyhd1tYw6S-13" target="OHUrIzu_nobyhd1tYw6S-11" edge="1">
          <mxGeometry relative="1" as="geometry" />
        </mxCell>
        <mxCell id="OHUrIzu_nobyhd1tYw6S-13" value="dev" style="ellipse;whiteSpace=wrap;html=1;fontFamily=Lucida Console;strokeWidth=2;fillWeight=4;hachureGap=8;hachureAngle=45;fontSize=15;sketch=1;" parent="1" vertex="1">
          <mxGeometry x="175" y="460" width="120" height="80" as="geometry" />
        </mxCell>
        <mxCell id="OHUrIzu_nobyhd1tYw6S-16" style="edgeStyle=orthogonalEdgeStyle;orthogonalLoop=1;jettySize=auto;html=1;exitX=0;exitY=0.5;exitDx=0;exitDy=0;entryX=1;entryY=0.5;entryDx=0;entryDy=0;fontFamily=Lucida Console;strokeWidth=2;fontSize=12;sketch=1;" parent="1" source="OHUrIzu_nobyhd1tYw6S-15" target="OHUrIzu_nobyhd1tYw6S-3" edge="1">
          <mxGeometry relative="1" as="geometry" />
        </mxCell>
        <mxCell id="OHUrIzu_nobyhd1tYw6S-17" style="edgeStyle=orthogonalEdgeStyle;orthogonalLoop=1;jettySize=auto;html=1;exitX=0.5;exitY=1;exitDx=0;exitDy=0;entryX=1;entryY=0.5;entryDx=0;entryDy=0;fontFamily=Lucida Console;startArrow=classic;startFill=1;strokeWidth=2;fontSize=12;sketch=1;" parent="1" source="OHUrIzu_nobyhd1tYw6S-15" target="OHUrIzu_nobyhd1tYw6S-11" edge="1">
          <mxGeometry relative="1" as="geometry" />
        </mxCell>
        <mxCell id="OHUrIzu_nobyhd1tYw6S-15" value="browser" style="ellipse;whiteSpace=wrap;html=1;fontFamily=Lucida Console;strokeWidth=2;fillWeight=4;hachureGap=8;hachureAngle=45;fontSize=15;sketch=1;" parent="1" vertex="1">
          <mxGeometry x="460" y="110" width="120" height="80" as="geometry" />
        </mxCell>
        <mxCell id="OHUrIzu_nobyhd1tYw6S-18" value="③新建websocket连接，&lt;br style=&quot;font-size: 12px;&quot;&gt;发送麦克风采集的音频流" style="text;html=1;align=center;verticalAlign=middle;resizable=0;points=[];autosize=1;fontFamily=Lucida Console;strokeWidth=2;fontSize=12;sketch=1;" parent="1" vertex="1">
          <mxGeometry x="520" y="260" width="150" height="30" as="geometry" />
        </mxCell>
        <mxCell id="OHUrIzu_nobyhd1tYw6S-21" value="①启动实时采播" style="text;html=1;align=center;verticalAlign=middle;resizable=0;points=[];autosize=1;fontFamily=Lucida Console;strokeWidth=2;fontSize=12;sketch=1;" parent="1" vertex="1">
          <mxGeometry x="345" y="130" width="100" height="20" as="geometry" />
        </mxCell>
        <mxCell id="OHUrIzu_nobyhd1tYw6S-22" value="②返回RTP服务器地址" style="text;html=1;align=center;verticalAlign=middle;resizable=0;points=[];autosize=1;fontFamily=Lucida Console;strokeWidth=2;fontSize=12;sketch=1;" parent="1" vertex="1">
          <mxGeometry x="330" y="170" width="130" height="20" as="geometry" />
        </mxCell>
        <mxCell id="OHUrIzu_nobyhd1tYw6S-23" value="⑥实时推送音频流" style="text;html=1;align=center;verticalAlign=middle;resizable=0;points=[];autosize=1;fontFamily=Lucida Console;strokeWidth=2;fontSize=12;sketch=1;" parent="1" vertex="1">
          <mxGeometry x="90" y="390" width="110" height="20" as="geometry" />
        </mxCell>
        <mxCell id="OHUrIzu_nobyhd1tYw6S-28" style="edgeStyle=orthogonalEdgeStyle;orthogonalLoop=1;jettySize=auto;html=1;exitX=0.5;exitY=1;exitDx=0;exitDy=0;entryX=1;entryY=0.5;entryDx=0;entryDy=0;startArrow=none;startFill=0;fontFamily=Lucida Console;strokeWidth=2;fontSize=12;sketch=1;" parent="1" source="OHUrIzu_nobyhd1tYw6S-26" target="OHUrIzu_nobyhd1tYw6S-13" edge="1">
          <mxGeometry relative="1" as="geometry" />
        </mxCell>
        <mxCell id="OHUrIzu_nobyhd1tYw6S-26" value="devconnector" style="whiteSpace=wrap;html=1;fontFamily=Lucida Console;strokeWidth=2;fillWeight=4;hachureGap=8;hachureAngle=45;fontSize=15;sketch=1;" parent="1" vertex="1">
          <mxGeometry x="460" y="380" width="120" height="60" as="geometry" />
        </mxCell>
        <mxCell id="OHUrIzu_nobyhd1tYw6S-31" value="④生成StreamId，请求设备开始播放" style="text;html=1;align=center;verticalAlign=middle;resizable=0;points=[];autosize=1;fontFamily=Lucida Console;strokeWidth=2;fontSize=12;sketch=1;" parent="1" vertex="1">
          <mxGeometry x="295" y="320" width="220" height="20" as="geometry" />
        </mxCell>
        <mxCell id="OHUrIzu_nobyhd1tYw6S-33" value="⑤鉴权验证streamId" style="text;html=1;align=center;verticalAlign=middle;resizable=0;points=[];autosize=1;fontFamily=Lucida Console;strokeWidth=2;fontSize=12;sketch=1;" parent="1" vertex="1">
          <mxGeometry x="275" y="400" width="130" height="20" as="geometry" />
        </mxCell>
        <mxCell id="OHUrIzu_nobyhd1tYw6S-36" value="RPC调用：&lt;br style=&quot;font-size: 12px&quot;&gt;1.新增实时采播任务&lt;br style=&quot;font-size: 12px&quot;&gt;2.结束实时采播任务&lt;br style=&quot;font-size: 12px&quot;&gt;3.新增实时采播设备&lt;br&gt;4.删除实时采播设备" style="text;html=1;align=center;verticalAlign=middle;resizable=0;points=[];autosize=1;fontFamily=Lucida Console;strokeWidth=2;fontSize=12;sketch=1;" parent="1" vertex="1">
          <mxGeometry x="100" y="180" width="130" height="80" as="geometry" />
        </mxCell>
      </root>
    </mxGraphModel>
  </diagram>
</mxfile>
